<svg width="153" height="149" viewBox="0 0 153 149" fill="none" xmlns="http://www.w3.org/2000/svg">
<rect x="14.6589" y="45.8085" width="125.515" height="98.0299" fill="#FFCB13"/>
<rect x="5.49707" y="29.3173" width="143.838" height="14.6587" fill="#434343"/>
<rect x="105.359" y="17.4073" width="28.4012" height="8.24551" fill="#CA1515"/>
<rect x="20.1558" y="17.4073" width="27.485" height="8.24551" fill="#0066FF"/>
<path d="M149.07 24.7451H136.975V15.6827C136.975 14.016 135.621 12.6634 133.952 12.6634H130.927V3.60252C130.927 1.93582 129.573 0.582031 127.905 0.582031H109.761C108.092 0.582031 106.739 1.93582 106.739 3.60252V12.6634H103.714C102.044 12.6634 100.69 14.0163 100.69 15.6827V24.7451H52.3106V15.6827C52.3106 14.016 50.958 12.6634 49.2863 12.6634H46.2634V3.60252C46.2634 1.93582 44.9092 0.582031 43.239 0.582031H25.0977C23.4275 0.582031 22.0733 1.93582 22.0733 3.60252V12.6634H19.0489C17.3802 12.6634 16.0261 14.0163 16.0261 15.6827V24.7451H3.93009C2.2611 24.7451 0.907227 26.0961 0.907227 27.7643V45.8843C0.907227 47.554 2.2614 48.9051 3.93009 48.9051H9.97883V145.548C9.97883 147.218 11.3315 148.569 13.0029 148.569H139.998C141.669 148.569 143.022 147.218 143.022 145.548V48.9051H149.07C150.74 48.9051 152.093 47.554 152.093 45.8843V27.7643C152.093 26.0961 150.74 24.7451 149.07 24.7451ZM112.785 6.62331H124.88V12.6634H112.785V6.62331ZM106.738 18.7035C114.132 18.7035 123.483 18.7035 130.926 18.7035V24.7451H106.738V18.7035ZM28.1214 6.62331H40.2159V12.6634H28.1214V6.62331ZM22.0733 18.7035C28.3878 18.7035 39.9461 18.7035 46.2634 18.7035V24.7451H22.0733V18.7035ZM136.975 142.531H16.0258V48.9053H136.974L136.975 142.531ZM146.046 42.8653C140.21 42.8653 16.0161 42.8653 6.95446 42.8653V30.7839C13.898 30.7839 139.749 30.7839 146.046 30.7839V42.8653Z" fill="#434343"/>
<path d="M55.3336 130.448C56.1147 130.448 56.8898 130.148 57.4734 129.566L90.7334 96.3437C91.597 95.4798 91.8574 94.1816 91.389 93.052C90.9212 91.9253 89.818 91.1877 88.5953 91.1877H85.3315L103.167 65.7383C103.814 64.8149 103.892 63.6112 103.373 62.6112C102.851 61.6126 101.817 60.9858 100.69 60.9858H64.4052C63.0701 60.9858 61.8931 61.8618 61.5094 63.1391L52.4378 93.3407C51.8559 95.2759 53.309 97.2287 55.3351 97.2287H60.4473L52.4169 126.634C51.8895 128.566 53.3577 130.448 55.3336 130.448ZM59.3989 91.1871L66.6554 67.0268H94.8833L77.0473 92.4766C76.4005 93.3999 76.3228 94.6033 76.842 95.6037C77.3633 96.6007 78.397 97.229 79.5237 97.229H81.2955L61.2475 117.253L67.3228 95.002C67.8457 93.0903 66.4044 91.1877 64.4052 91.1877L59.3989 91.1871Z" fill="#CA1515"/>
<path d="M59.3989 91.1871L66.6554 67.0268H94.8833L77.0473 92.4766C76.4005 93.3999 76.3228 94.6033 76.842 95.6037C77.3633 96.6007 78.397 97.229 79.5237 97.229H81.2955L61.2475 117.253L67.3228 95.002C67.8457 93.0903 66.4044 91.1877 64.4052 91.1877L59.3989 91.1871Z" fill="#CA1515"/>
</svg>
