<svg width="290" height="132" viewBox="0 0 290 132" fill="none" xmlns="http://www.w3.org/2000/svg">
<path d="M71.4388 68.134L67.1663 98.4229H55.0355L54.4251 92.3193C53.357 93.3874 52.06 94.481 50.5341 95.6C49.0591 96.7189 47.3552 97.6599 45.4224 98.4229C43.4896 99.1349 41.3534 99.491 39.0137 99.491C35.555 99.491 32.6049 98.6263 30.1635 96.897C27.7729 95.1676 26.0945 92.2684 25.1281 88.1994C24.2125 84.0795 24.238 78.51 25.2044 71.4909C25.9673 66.0486 27.0609 61.5981 28.485 58.1394C29.9092 54.6298 31.7657 51.9087 34.0545 49.9759C36.3434 47.9922 39.1154 46.6189 42.3706 45.856C45.6767 45.093 49.5677 44.7115 54.0437 44.7115C57.1972 44.7115 60.249 44.8896 63.199 45.2456C66.1491 45.5508 68.972 46.1357 71.6677 47.0004L69.8366 58.826C66.9883 58.7752 64.2671 58.7497 61.6731 58.7497C59.13 58.6989 56.2054 58.6734 52.8993 58.6734C50.6613 58.6734 48.8811 59.1058 47.5586 59.9704C46.2362 60.7843 45.1935 62.2084 44.4306 64.2429C43.6676 66.2775 43.0064 69.1003 42.4469 72.7116C41.9383 76.1703 41.7094 78.8152 41.7603 80.6462C41.8111 82.4773 42.218 83.7235 42.981 84.3847C43.7948 85.0459 45.0409 85.3765 46.7194 85.3765C48.4996 85.3765 49.8983 85.1222 50.9156 84.6136C51.9837 84.0541 52.8738 83.52 53.5859 83.0114L55.6459 68.134H71.4388ZM89.0569 45.4745C92.1595 45.4745 95.2876 45.4999 98.4411 45.5508C101.645 45.6017 104.723 45.7034 107.673 45.856C110.623 45.9577 113.268 46.1866 115.607 46.5426L113.776 58.1394H95.4656C94.194 58.1394 93.2531 58.3683 92.6427 58.826C92.0832 59.2329 91.7272 60.0213 91.5746 61.1912L90.8879 65.9977H109.885L108.512 76.9841H89.362L88.5228 83.0877C88.2176 85.0713 89.1586 86.0631 91.3457 86.0631H109.656L109.351 97.8125C106.91 98.1685 104.214 98.3974 101.264 98.4991C98.3139 98.6009 95.313 98.6517 92.2612 98.6517C89.2095 98.7026 86.3103 98.728 83.5637 98.728C79.2403 98.728 76.0614 97.3802 74.0269 94.6844C71.9923 91.9887 71.2294 88.5554 71.738 84.3847L75.5527 57.1475C76.0614 53.5871 77.4601 50.7642 79.7489 48.6789C82.0886 46.5426 85.1913 45.4745 89.0569 45.4745ZM137.497 44.7115C140.447 44.7115 143.575 44.915 146.882 45.3219C150.238 45.7288 153.392 46.4409 156.342 47.4582L154.892 57.9868C152.553 57.9359 149.704 57.9105 146.347 57.9105C142.99 57.8596 139.684 57.8342 136.429 57.8342C134.7 57.8342 133.454 57.9868 132.691 58.292C131.928 58.5463 131.445 59.1058 131.241 59.9704C131.139 60.5299 131.292 61.064 131.699 61.5726C132.106 62.0813 133.072 62.6916 134.598 63.4037L143.448 67.5999C146.347 68.9732 148.535 70.4228 150.01 71.9487C151.485 73.4746 152.426 75.2293 152.832 77.213C153.29 79.1458 153.367 81.4092 153.061 84.0032C152.604 88.0214 151.612 91.1749 150.086 93.4637C148.56 95.7017 146.271 97.2784 143.219 98.194C140.218 99.0586 136.175 99.491 131.089 99.491C128.901 99.491 125.926 99.2875 122.162 98.8806C118.449 98.5246 114.584 97.8379 110.565 96.8207L112.091 85.3002C116.516 85.4019 120.407 85.5037 123.764 85.6054C127.121 85.6562 129.283 85.6817 130.249 85.6817C132.589 85.6817 134.191 85.5291 135.056 85.2239C135.971 84.8679 136.531 84.2829 136.734 83.4691C136.887 82.8079 136.76 82.2739 136.353 81.867C135.997 81.4601 135.285 81.0023 134.217 80.4937L124.604 75.7634C121.653 74.2884 119.441 72.7371 117.966 71.1094C116.491 69.431 115.55 67.6253 115.143 65.6925C114.736 63.7597 114.66 61.7252 114.914 59.589C115.372 55.7234 116.465 52.7225 118.195 50.5862C119.924 48.3991 122.366 46.8732 125.519 46.0086C128.723 45.1439 132.716 44.7115 137.497 44.7115ZM172.102 45.4745C175.204 45.4745 178.332 45.4999 181.486 45.5508C184.69 45.6017 187.767 45.7034 190.717 45.856C193.667 45.9577 196.312 46.1866 198.652 46.5426L196.821 58.1394H178.51C177.239 58.1394 176.298 58.3683 175.687 58.826C175.128 59.2329 174.772 60.0213 174.619 61.1912L173.933 65.9977H192.93L191.557 76.9841H172.407L171.568 83.0877C171.262 85.0713 172.203 86.0631 174.39 86.0631H192.701L192.396 97.8125C189.954 98.1685 187.259 98.3974 184.309 98.4991C181.359 98.6009 178.358 98.6517 175.306 98.6517C172.254 98.7026 169.355 98.728 166.608 98.728C162.285 98.728 159.106 97.3802 157.072 94.6844C155.037 91.9887 154.274 88.5554 154.783 84.3847L158.597 57.1475C159.106 53.5871 160.505 50.7642 162.794 48.6789C165.133 46.5426 168.236 45.4745 172.102 45.4745ZM217.948 45.7797L212.531 82.2484C212.429 83.3674 212.557 84.1558 212.913 84.6136C213.319 85.0713 214.108 85.3002 215.278 85.3002H232.673L232.368 97.7362C228.858 98.194 224.865 98.4737 220.389 98.5754C215.913 98.6772 211.488 98.728 207.114 98.728C204.571 98.728 202.384 98.194 200.553 97.1258C198.722 96.0577 197.349 94.6081 196.433 92.7771C195.568 90.8951 195.314 88.7843 195.67 86.4446L201.316 45.7797H217.948ZM256.229 45.7797L250.812 82.2484C250.711 83.3674 250.838 84.1558 251.194 84.6136C251.601 85.0713 252.389 85.3002 253.559 85.3002H270.954L270.649 97.7362C267.139 98.194 263.147 98.4737 258.671 98.5754C254.195 98.6772 249.77 98.728 245.396 98.728C242.852 98.728 240.665 98.194 238.834 97.1258C237.003 96.0577 235.63 94.6081 234.714 92.7771C233.85 90.8951 233.595 88.7843 233.951 86.4446L239.597 45.7797H256.229Z" fill="#CA1515"/>
<path d="M30.7011 24.1078C31.8289 24.1078 32.7312 24.2206 33.4079 24.4461C34.0846 24.6584 34.5556 25.0299 34.821 25.5607C35.0864 26.0914 35.1527 26.8278 35.02 27.7699C34.8741 28.7385 34.5955 29.4749 34.1841 29.9791C33.7728 30.4701 33.1293 30.7553 32.2535 30.835L32.2336 30.9345C33.2686 31.0273 33.9519 31.4055 34.2836 32.0689C34.6154 32.7191 34.7016 33.5816 34.5424 34.6563C34.4097 35.5984 34.1576 36.3215 33.7861 36.8257C33.4278 37.3299 32.9103 37.6816 32.2336 37.8806C31.5702 38.0663 30.7011 38.1592 29.6264 38.1592C28.7639 38.1592 28.0142 38.1526 27.3773 38.1393C26.7537 38.1393 26.1765 38.1261 25.6458 38.0995C25.115 38.073 24.571 38.0398 24.0137 38L25.9443 24.267C26.4353 24.2139 26.9129 24.1808 27.3773 24.1675C27.8417 24.1409 28.3393 24.1277 28.87 24.1277C29.4008 24.1144 30.0111 24.1078 30.7011 24.1078ZM30.6016 26.0384C30.1239 26.0384 29.6794 26.0384 29.2681 26.0384C28.8568 26.0251 28.4786 26.0251 28.1336 26.0384L27.5764 30.0388H30.0443C30.8935 30.0256 31.5039 29.8796 31.8754 29.601C32.2602 29.3223 32.5123 28.7651 32.6317 27.9291C32.7378 27.1463 32.6383 26.6354 32.3332 26.3966C32.0412 26.1578 31.4641 26.0384 30.6016 26.0384ZM29.9647 31.7306H27.3375L26.7006 36.2286C27.4304 36.2286 28.2663 36.2286 29.2084 36.2286C29.8586 36.2286 30.376 36.1689 30.7608 36.0495C31.1589 35.9301 31.4574 35.7112 31.6565 35.3927C31.8555 35.0743 31.9948 34.6165 32.0744 34.0194C32.1673 33.4223 32.1607 32.9579 32.0545 32.6262C31.9616 32.2945 31.7427 32.0689 31.3977 31.9495C31.066 31.8168 30.5883 31.7439 29.9647 31.7306ZM43.4769 24.267C43.6892 24.267 43.875 24.3333 44.0342 24.466C44.1934 24.5987 44.2863 24.7712 44.3128 24.9835L46.6415 38H44.1536L43.5565 34.1189H38.4216L36.7497 38H34.1425L40.1332 24.884C40.2792 24.4727 40.5844 24.267 41.0488 24.267H43.4769ZM41.3473 27.4117L39.2973 32.1286H43.258L42.5415 27.4117C42.5149 27.1994 42.4884 26.9871 42.4619 26.7748C42.4486 26.5492 42.4353 26.3369 42.4221 26.1379H41.825C41.6923 26.5359 41.5331 26.9605 41.3473 27.4117ZM57.7308 24.267L57.4522 26.2971H53.2129L51.5609 38H49.0731L50.7051 26.2971H46.4857L46.7643 24.267H57.7308ZM61.2126 24.2272C62.2741 24.2272 63.3422 24.2338 64.4169 24.2471C65.505 24.2604 66.5068 24.3068 67.4223 24.3864L67.1237 26.2374H61.8495C61.4249 26.2374 61.1131 26.3303 60.914 26.516C60.7283 26.7018 60.6022 27.007 60.5359 27.4316L60.1975 29.9194H65.8301L65.5912 31.7107H59.9587L59.5208 34.8752C59.4014 35.6448 59.7331 36.0296 60.516 36.0296H65.7106L65.6708 37.8806C64.7686 37.9602 63.7933 38.0066 62.7451 38.0199C61.7102 38.0332 60.7216 38.0398 59.7796 38.0398C58.7314 38.0398 57.9684 37.7612 57.4907 37.2039C57.0263 36.6466 56.8538 35.9102 56.9733 34.9947L58.1276 26.7748C58.2338 25.9919 58.5456 25.3749 59.0631 24.9238C59.5938 24.4594 60.3103 24.2272 61.2126 24.2272ZM73.8187 24.0879C74.867 24.0879 75.7427 24.2139 76.4459 24.466C77.1492 24.7049 77.6534 25.1228 77.9585 25.7199C78.2637 26.317 78.3433 27.1463 78.1974 28.2078C78.0647 29.1764 77.7661 29.9526 77.3017 30.5364C76.8506 31.107 76.1275 31.4519 75.1323 31.5714L75.1124 31.6709C75.4707 31.7638 75.7891 31.9694 76.0678 32.2879C76.3597 32.6063 76.5587 33.0906 76.6648 33.7408L77.4411 38H74.8736L74.177 33.7209C74.1106 33.2432 73.9713 32.9181 73.759 32.7456C73.5467 32.5599 73.2415 32.467 72.8435 32.467C72.2995 32.467 71.8085 32.467 71.3707 32.467C70.9328 32.467 70.5414 32.4604 70.1964 32.4471L69.4202 38H66.9721L68.9027 24.267C69.4335 24.2139 69.9377 24.1741 70.4153 24.1476C70.893 24.121 71.3972 24.1078 71.928 24.1078C72.472 24.0945 73.1022 24.0879 73.8187 24.0879ZM73.7789 26.0384C73.2615 26.0384 72.7771 26.0384 72.326 26.0384C71.8749 26.0384 71.4636 26.045 71.092 26.0583L70.4551 30.5165H72.9828C73.5799 30.5165 74.0576 30.4502 74.4158 30.3175C74.7873 30.1715 75.0726 29.9327 75.2716 29.601C75.4707 29.256 75.61 28.7717 75.6896 28.1481C75.809 27.3387 75.7294 26.788 75.4508 26.4961C75.1854 26.1909 74.6281 26.0384 73.7789 26.0384ZM83.0101 24.267L81.0796 38H78.5718L80.5024 24.267H83.0101ZM91.0767 24.267C91.289 24.267 91.4748 24.3333 91.634 24.466C91.7932 24.5987 91.8861 24.7712 91.9126 24.9835L94.2413 38H91.7534L91.1563 34.1189H86.0214L84.3495 38H81.7423L87.733 24.884C87.879 24.4727 88.1842 24.267 88.6486 24.267H91.0767ZM88.9471 27.4117L86.8971 32.1286H90.8578L90.1413 27.4117C90.1148 27.1994 90.0882 26.9871 90.0617 26.7748C90.0484 26.5492 90.0351 26.3369 90.0219 26.1379H89.4248C89.2921 26.5359 89.1329 26.9605 88.9471 27.4117ZM100.844 24.0083C101.534 24.0215 102.25 24.0613 102.993 24.1277C103.736 24.194 104.453 24.3201 105.143 24.5058L104.904 26.1976C104.254 26.1843 103.577 26.171 102.874 26.1578C102.171 26.1312 101.454 26.118 100.725 26.118C100.207 26.118 99.7692 26.1445 99.4109 26.1976C99.0659 26.2374 98.7873 26.3701 98.575 26.5956C98.376 26.8212 98.2366 27.206 98.157 27.75C98.0774 28.2807 98.1239 28.6589 98.2964 28.8845C98.4688 29.11 98.8337 29.329 99.391 29.5413L101.958 30.5762C102.675 30.8549 103.212 31.1733 103.571 31.5316C103.942 31.8898 104.174 32.3144 104.267 32.8053C104.373 33.2963 104.387 33.8801 104.307 34.5568C104.174 35.5652 103.909 36.3348 103.511 36.8655C103.126 37.3963 102.562 37.7612 101.819 37.9602C101.089 38.1592 100.154 38.2587 99.0129 38.2587C98.5485 38.2587 97.9116 38.2256 97.1022 38.1592C96.3061 38.1061 95.437 37.9801 94.4949 37.7811L94.7536 35.9898C95.9213 36.0296 96.8169 36.0628 97.4405 36.0893C98.0774 36.1026 98.5816 36.1026 98.9531 36.0893C99.6166 36.0893 100.141 36.0495 100.525 35.9699C100.924 35.8903 101.222 35.7311 101.421 35.4922C101.62 35.2401 101.753 34.8686 101.819 34.3777C101.899 33.8337 101.852 33.4555 101.68 33.2432C101.521 33.0176 101.182 32.8053 100.665 32.6063L97.9978 31.5316C96.9761 31.107 96.2994 30.5762 95.9677 29.9393C95.6493 29.3024 95.5498 28.5196 95.6692 27.5908C95.8151 26.5691 96.1004 25.8062 96.525 25.3019C96.9496 24.7845 97.5201 24.4395 98.2366 24.267C98.9531 24.0945 99.8222 24.0083 100.844 24.0083Z" fill="#CA1515"/>
<path d="M25.2613 106H274L271.739 110H23L25.2613 106Z" fill="#CA1515"/>
<path d="M110.486 34H274L272.514 38H109L110.486 34Z" fill="#CA1515"/>
<path fill-rule="evenodd" clip-rule="evenodd" d="M36.6158 46L14.014 46.5913L31.8505 48.7407C33.2656 47.6081 34.854 46.6946 36.6158 46ZM27.9971 52.9927L5.39233 53.1872L26.4043 55.8536C26.8924 54.8219 27.4234 53.8682 27.9971 52.9927ZM24.3738 61.3509L2.25004 61.5414L23.6385 64.2209C23.8677 63.2167 24.1128 62.2601 24.3738 61.3509ZM22.6157 69.6932L0.680534 69.882L22.2248 72.6137C22.2982 71.9876 22.3797 71.3491 22.4694 70.698C22.5169 70.3592 22.5656 70.0243 22.6157 69.6932ZM21.7772 78.0275L0 78.2149L21.7287 80.9625C21.7169 80.0273 21.7331 79.0489 21.7772 78.0275ZM27.4285 96.1041C27.6765 96.2797 27.9296 96.4464 28.1881 96.6042L7.59773 94.8904L25.054 93.6854C25.7468 94.6538 26.5383 95.4601 27.4285 96.1041ZM22.1846 86.351C22.2476 86.7128 22.3171 87.0647 22.3931 87.4065C22.5548 88.0874 22.7364 88.7355 22.938 89.3509L0.960636 86.5337L22.1846 86.351Z" fill="#CA1515" fill-opacity="0.6"/>
</svg>
