<svg width="275" height="97" viewBox="0 0 275 97" fill="none" xmlns="http://www.w3.org/2000/svg">
<path d="M71.4388 50.134L67.1663 80.4229H55.0355L54.4251 74.3193C53.357 75.3874 52.06 76.481 50.5341 77.6C49.0591 78.7189 47.3552 79.6599 45.4224 80.4229C43.4896 81.1349 41.3534 81.491 39.0137 81.491C35.555 81.491 32.6049 80.6263 30.1635 78.897C27.7729 77.1676 26.0945 74.2684 25.1281 70.1994C24.2125 66.0795 24.238 60.51 25.2044 53.4909C25.9673 48.0486 27.0609 43.5981 28.485 40.1394C29.9092 36.6298 31.7657 33.9087 34.0545 31.9759C36.3434 29.9922 39.1154 28.6189 42.3706 27.856C45.6767 27.093 49.5677 26.7115 54.0437 26.7115C57.1972 26.7115 60.249 26.8896 63.199 27.2456C66.1491 27.5508 68.972 28.1357 71.6677 29.0004L69.8366 40.826C66.9883 40.7752 64.2671 40.7497 61.6731 40.7497C59.13 40.6989 56.2054 40.6734 52.8993 40.6734C50.6613 40.6734 48.8811 41.1058 47.5586 41.9704C46.2362 42.7843 45.1935 44.2084 44.4306 46.2429C43.6676 48.2775 43.0064 51.1003 42.4469 54.7116C41.9383 58.1703 41.7094 60.8152 41.7603 62.6462C41.8111 64.4773 42.218 65.7235 42.981 66.3847C43.7948 67.0459 45.0409 67.3765 46.7194 67.3765C48.4996 67.3765 49.8983 67.1222 50.9156 66.6136C51.9837 66.0541 52.8738 65.52 53.5859 65.0114L55.6459 50.134H71.4388ZM89.0569 27.4745C92.1595 27.4745 95.2876 27.4999 98.4411 27.5508C101.645 27.6017 104.723 27.7034 107.673 27.856C110.623 27.9577 113.268 28.1866 115.607 28.5426L113.776 40.1394H95.4656C94.194 40.1394 93.2531 40.3683 92.6427 40.826C92.0832 41.2329 91.7272 42.0213 91.5746 43.1912L90.8879 47.9977H109.885L108.512 58.9841H89.362L88.5228 65.0877C88.2176 67.0713 89.1586 68.0631 91.3457 68.0631H109.656L109.351 79.8125C106.91 80.1685 104.214 80.3974 101.264 80.4991C98.3139 80.6009 95.313 80.6517 92.2612 80.6517C89.2095 80.7026 86.3103 80.728 83.5637 80.728C79.2403 80.728 76.0614 79.3802 74.0269 76.6844C71.9923 73.9887 71.2294 70.5554 71.738 66.3847L75.5527 39.1475C76.0614 35.5871 77.4601 32.7642 79.7489 30.6789C82.0886 28.5426 85.1913 27.4745 89.0569 27.4745ZM137.497 26.7115C140.447 26.7115 143.575 26.915 146.882 27.3219C150.238 27.7288 153.392 28.4409 156.342 29.4582L154.892 39.9868C152.553 39.9359 149.704 39.9105 146.347 39.9105C142.99 39.8596 139.684 39.8342 136.429 39.8342C134.7 39.8342 133.454 39.9868 132.691 40.292C131.928 40.5463 131.445 41.1058 131.241 41.9704C131.139 42.5299 131.292 43.064 131.699 43.5726C132.106 44.0813 133.072 44.6916 134.598 45.4037L143.448 49.5999C146.347 50.9732 148.535 52.4228 150.01 53.9487C151.485 55.4746 152.426 57.2293 152.832 59.213C153.29 61.1458 153.367 63.4092 153.061 66.0032C152.604 70.0214 151.612 73.1749 150.086 75.4637C148.56 77.7017 146.271 79.2784 143.219 80.194C140.218 81.0586 136.175 81.491 131.089 81.491C128.901 81.491 125.926 81.2875 122.162 80.8806C118.449 80.5246 114.584 79.8379 110.565 78.8207L112.091 67.3002C116.516 67.4019 120.407 67.5037 123.764 67.6054C127.121 67.6562 129.283 67.6817 130.249 67.6817C132.589 67.6817 134.191 67.5291 135.056 67.2239C135.971 66.8679 136.531 66.2829 136.734 65.4691C136.887 64.8079 136.76 64.2739 136.353 63.867C135.997 63.4601 135.285 63.0023 134.217 62.4937L124.604 57.7634C121.653 56.2884 119.441 54.7371 117.966 53.1094C116.491 51.431 115.55 49.6253 115.143 47.6925C114.736 45.7597 114.66 43.7252 114.914 41.589C115.372 37.7234 116.465 34.7225 118.195 32.5862C119.924 30.3991 122.366 28.8732 125.519 28.0086C128.723 27.1439 132.716 26.7115 137.497 26.7115ZM172.102 27.4745C175.204 27.4745 178.332 27.4999 181.486 27.5508C184.69 27.6017 187.767 27.7034 190.717 27.856C193.667 27.9577 196.312 28.1866 198.652 28.5426L196.821 40.1394H178.51C177.239 40.1394 176.298 40.3683 175.687 40.826C175.128 41.2329 174.772 42.0213 174.619 43.1912L173.933 47.9977H192.93L191.557 58.9841H172.407L171.568 65.0877C171.262 67.0713 172.203 68.0631 174.39 68.0631H192.701L192.396 79.8125C189.954 80.1685 187.259 80.3974 184.309 80.4991C181.359 80.6009 178.358 80.6517 175.306 80.6517C172.254 80.7026 169.355 80.728 166.608 80.728C162.285 80.728 159.106 79.3802 157.072 76.6844C155.037 73.9887 154.274 70.5554 154.783 66.3847L158.597 39.1475C159.106 35.5871 160.505 32.7642 162.794 30.6789C165.133 28.5426 168.236 27.4745 172.102 27.4745ZM217.948 27.7797L212.531 64.2484C212.429 65.3674 212.557 66.1558 212.913 66.6136C213.319 67.0713 214.108 67.3002 215.278 67.3002H232.673L232.368 79.7362C228.858 80.194 224.865 80.4737 220.389 80.5754C215.913 80.6772 211.488 80.728 207.114 80.728C204.571 80.728 202.384 80.194 200.553 79.1258C198.722 78.0577 197.349 76.6081 196.433 74.7771C195.568 72.8951 195.314 70.7843 195.67 68.4446L201.316 27.7797H217.948ZM256.229 27.7797L250.812 64.2484C250.711 65.3674 250.838 66.1558 251.194 66.6136C251.601 67.0713 252.389 67.3002 253.559 67.3002H270.954L270.649 79.7362C267.139 80.194 263.147 80.4737 258.671 80.5754C254.195 80.6772 249.77 80.728 245.396 80.728C242.852 80.728 240.665 80.194 238.834 79.1258C237.003 78.0577 235.63 76.6081 234.714 74.7771C233.85 72.8951 233.595 70.7843 233.951 68.4446L239.597 27.7797H256.229Z" fill="white"/>
<path d="M30.7014 6.10777C31.8292 6.10777 32.7315 6.22056 33.4082 6.44612C34.0849 6.65842 34.5559 7.02994 34.8213 7.56069C35.0866 8.09143 35.153 8.82784 35.0203 9.76991C34.8743 10.7385 34.5957 11.4749 34.1844 11.9791C33.773 12.4701 33.1295 12.7553 32.2538 12.835L32.2339 12.9345C33.2688 13.0273 33.9522 13.4055 34.2839 14.0689C34.6156 14.7191 34.7018 15.5816 34.5426 16.6563C34.4099 17.5984 34.1578 18.3215 33.7863 18.8257C33.4281 19.3299 32.9106 19.6816 32.2339 19.8806C31.5705 20.0663 30.7014 20.1592 29.6266 20.1592C28.7641 20.1592 28.0145 20.1526 27.3776 20.1393C26.754 20.1393 26.1768 20.1261 25.646 20.0995C25.1153 20.073 24.5713 20.0398 24.014 20L25.9446 6.267C26.4355 6.21392 26.9132 6.18075 27.3776 6.16748C27.842 6.14094 28.3395 6.12768 28.8703 6.12768C29.401 6.11441 30.0114 6.10777 30.7014 6.10777ZM30.6018 8.03836C30.1242 8.03836 29.6797 8.03836 29.2684 8.03836C28.857 8.02509 28.4789 8.02509 28.1339 8.03836L27.5766 12.0388H30.0446C30.8938 12.0256 31.5041 11.8796 31.8756 11.601C32.2604 11.3223 32.5125 10.7651 32.6319 9.92913C32.7381 9.14628 32.6386 8.63544 32.3334 8.39661C32.0415 8.15777 31.4643 8.03836 30.6018 8.03836ZM29.965 13.7306H27.3378L26.7009 18.2286C27.4306 18.2286 28.2666 18.2286 29.2086 18.2286C29.8588 18.2286 30.3763 18.1689 30.7611 18.0495C31.1591 17.9301 31.4577 17.7112 31.6567 17.3927C31.8557 17.0743 31.995 16.6165 32.0747 16.0194C32.1675 15.4223 32.1609 14.9579 32.0548 14.6262C31.9619 14.2945 31.7429 14.0689 31.398 13.9495C31.0662 13.8168 30.5886 13.7439 29.965 13.7306ZM43.4772 6.267C43.6895 6.267 43.8752 6.33334 44.0344 6.46603C44.1937 6.59871 44.2865 6.7712 44.3131 6.9835L46.6417 20H44.1539L43.5568 16.1189H38.4218L36.75 20H34.1427L40.1335 6.88399C40.2794 6.47266 40.5846 6.267 41.049 6.267H43.4772ZM41.3475 9.41166L39.2975 14.1286H43.2582L42.5417 9.41166C42.5152 9.19936 42.4886 8.98706 42.4621 8.77476C42.4488 8.5492 42.4356 8.3369 42.4223 8.13787H41.8252C41.6925 8.53593 41.5333 8.96052 41.3475 9.41166ZM57.7311 6.267L57.4524 8.29709H53.2131L51.5612 20H49.0733L50.7053 8.29709H46.4859L46.7646 6.267H57.7311ZM61.2128 6.22719C62.2743 6.22719 63.3424 6.23382 64.4172 6.24709C65.5052 6.26036 66.507 6.3068 67.4225 6.38641L67.124 8.23738H61.8497C61.4251 8.23738 61.1133 8.33026 60.9143 8.51602C60.7285 8.70179 60.6025 9.00696 60.5361 9.43156L60.1978 11.9194H65.8303L65.5915 13.7107H59.9589L59.5211 16.8752C59.4017 17.6448 59.7334 18.0296 60.5162 18.0296H65.7109L65.6711 19.8806C64.7688 19.9602 63.7936 20.0066 62.7453 20.0199C61.7104 20.0332 60.7219 20.0398 59.7798 20.0398C58.7316 20.0398 57.9686 19.7612 57.491 19.2039C57.0266 18.6466 56.8541 17.9102 56.9735 16.9947L58.1279 8.77476C58.234 7.99192 58.5458 7.37493 59.0633 6.92379C59.5941 6.45939 60.3106 6.22719 61.2128 6.22719ZM73.819 6.08787C74.8672 6.08787 75.7429 6.21392 76.4462 6.46603C77.1494 6.70486 77.6536 7.12282 77.9588 7.71991C78.264 8.317 78.3436 9.14628 78.1976 10.2078C78.0649 11.1764 77.7664 11.9526 77.302 12.5364C76.8509 13.107 76.1277 13.4519 75.1326 13.5714L75.1127 13.6709C75.4709 13.7638 75.7894 13.9694 76.068 14.2879C76.3599 14.6063 76.5589 15.0906 76.6651 15.7408L77.4413 20H74.8738L74.1772 15.7209C74.1109 15.2432 73.9716 14.9181 73.7593 14.7456C73.547 14.5599 73.2418 14.467 72.8437 14.467C72.2997 14.467 71.8088 14.467 71.3709 14.467C70.9331 14.467 70.5416 14.4604 70.1966 14.4471L69.4204 20H66.9724L68.903 6.267C69.4337 6.21392 69.9379 6.17412 70.4156 6.14758C70.8932 6.12104 71.3975 6.10777 71.9282 6.10777C72.4722 6.0945 73.1025 6.08787 73.819 6.08787ZM73.7792 8.03836C73.2617 8.03836 72.7774 8.03836 72.3263 8.03836C71.8751 8.03836 71.4638 8.04499 71.0923 8.05826L70.4554 12.5165H72.9831C73.5801 12.5165 74.0578 12.4502 74.4161 12.3175C74.7876 12.1715 75.0729 11.9327 75.2719 11.601C75.4709 11.256 75.6102 10.7717 75.6898 10.1481C75.8093 9.33868 75.7297 8.78803 75.451 8.49612C75.1856 8.19094 74.6284 8.03836 73.7792 8.03836ZM83.0104 6.267L81.0798 20H78.572L80.5026 6.267H83.0104ZM91.077 6.267C91.2893 6.267 91.475 6.33334 91.6343 6.46603C91.7935 6.59871 91.8864 6.7712 91.9129 6.9835L94.2415 20H91.7537L91.1566 16.1189H86.0216L84.3498 20H81.7425L87.7333 6.88399C87.8792 6.47266 88.1844 6.267 88.6488 6.267H91.077ZM88.9474 9.41166L86.8974 14.1286H90.858L90.1415 9.41166C90.115 9.19936 90.0885 8.98706 90.0619 8.77476C90.0487 8.5492 90.0354 8.3369 90.0221 8.13787H89.425C89.2923 8.53593 89.1331 8.96052 88.9474 9.41166ZM100.844 6.00826C101.534 6.02153 102.251 6.06133 102.994 6.12768C103.737 6.19402 104.453 6.32007 105.143 6.50583L104.904 8.19758C104.254 8.18431 103.578 8.17104 102.874 8.15777C102.171 8.13124 101.455 8.11797 100.725 8.11797C100.207 8.11797 99.7694 8.1445 99.4112 8.19758C99.0662 8.23738 98.7875 8.37007 98.5752 8.59564C98.3762 8.8212 98.2369 9.20599 98.1573 9.75C98.0777 10.2807 98.1241 10.6589 98.2966 10.8845C98.4691 11.11 98.834 11.329 99.3913 11.5413L101.959 12.5762C102.675 12.8549 103.213 13.1733 103.571 13.5316C103.942 13.8898 104.175 14.3144 104.267 14.8053C104.374 15.2963 104.387 15.8801 104.307 16.5568C104.175 17.5652 103.909 18.3348 103.511 18.8655C103.126 19.3963 102.562 19.7612 101.819 19.9602C101.09 20.1592 100.154 20.2587 99.0131 20.2587C98.5487 20.2587 97.9118 20.2256 97.1024 20.1592C96.3063 20.1061 95.4372 19.9801 94.4951 19.7811L94.7539 17.9898C95.9215 18.0296 96.8171 18.0628 97.4408 18.0893C98.0777 18.1026 98.5819 18.1026 98.9534 18.0893C99.6168 18.0893 100.141 18.0495 100.526 17.9699C100.924 17.8903 101.222 17.7311 101.421 17.4922C101.62 17.2401 101.753 16.8686 101.819 16.3777C101.899 15.8337 101.853 15.4555 101.68 15.2432C101.521 15.0176 101.183 14.8053 100.665 14.6063L97.9981 13.5316C96.9764 13.107 96.2997 12.5762 95.968 11.9393C95.6495 11.3024 95.55 10.5196 95.6694 9.59078C95.8154 8.5691 96.1006 7.80615 96.5252 7.30195C96.9498 6.78447 97.5204 6.43949 98.2369 6.267C98.9534 6.0945 99.8225 6.00826 100.844 6.00826Z" fill="white"/>
<path d="M25.2613 88H274L271.739 92H23L25.2613 88Z" fill="white"/>
<path d="M110.486 16H274L272.514 20H109L110.486 16Z" fill="white"/>
<path fill-rule="evenodd" clip-rule="evenodd" d="M36.6158 28L14.014 28.5913L31.8505 30.7407C33.2656 29.6081 34.854 28.6946 36.6158 28ZM27.9971 34.9927L5.39233 35.1872L26.4043 37.8536C26.8924 36.8219 27.4234 35.8682 27.9971 34.9927ZM24.3738 43.3509L2.25004 43.5414L23.6385 46.2209C23.8677 45.2167 24.1128 44.2601 24.3738 43.3509ZM22.6157 51.6932L0.680534 51.882L22.2248 54.6137C22.2982 53.9876 22.3797 53.3491 22.4694 52.698C22.5169 52.3592 22.5656 52.0243 22.6157 51.6932ZM21.7772 60.0275L0 60.2149L21.7287 62.9625C21.7169 62.0273 21.7331 61.0489 21.7772 60.0275ZM27.4285 78.1041C27.6765 78.2797 27.9296 78.4464 28.1881 78.6042L7.59773 76.8904L25.054 75.6854C25.7468 76.6538 26.5383 77.4601 27.4285 78.1041ZM22.1846 68.351C22.2476 68.7128 22.3171 69.0647 22.3931 69.4065C22.5548 70.0874 22.7364 70.7355 22.938 71.3509L0.960636 68.5337L22.1846 68.351Z" fill="white" fill-opacity="0.6"/>
</svg>
