<svg width="72" height="72" viewBox="0 0 72 72" fill="none" xmlns="http://www.w3.org/2000/svg">
<path d="M13.1997 43.5685H22.7915V41.88C22.7911 41.059 22.4953 40.2656 21.9583 39.6446C21.4213 39.0236 20.6789 38.6165 19.8666 38.4975L13.1997 37.577" stroke="#CA1515" stroke-width="3" stroke-miterlimit="10" stroke-linecap="round"/>
<path d="M52.945 51.2104V53.4545C52.945 54.5206 53.3685 55.543 54.1224 56.2969C54.8762 57.0507 55.8987 57.4742 56.9648 57.4742H59.2143C60.2804 57.4742 61.3028 57.0507 62.0567 56.2969C62.8105 55.543 63.234 54.5206 63.234 53.4545V34.8264L67.3573 33.3176C67.5453 33.2494 67.7079 33.1251 67.8229 32.9614C67.9378 32.7977 67.9997 32.6026 68 32.4026V29.1345C68 28.8744 67.8967 28.6251 67.7128 28.4412C67.529 28.2573 67.2796 28.154 67.0196 28.154H62.3626C61.7105 28.155 61.0703 27.9799 60.5094 27.6472C59.9486 27.3146 59.488 26.8367 59.1762 26.264L54.53 17.7234C54.0862 16.9019 53.4289 16.2153 52.6275 15.736C51.8261 15.2567 50.9103 15.0024 49.9765 15H22.0235C21.0897 15.0024 20.1739 15.2567 19.3725 15.736C18.5711 16.2153 17.9138 16.9019 17.47 17.7234L12.8238 26.2422C12.5116 26.8145 12.0508 27.2921 11.4901 27.6247C10.9294 27.9573 10.2894 28.1326 9.63745 28.1323H4.98043C4.85167 28.1323 4.72418 28.1576 4.60523 28.2069C4.48628 28.2562 4.3782 28.3284 4.28716 28.4194C4.19612 28.5105 4.1239 28.6185 4.07463 28.7375C4.02536 28.8564 4 28.9839 4 29.1127V32.3808C4.00032 32.5808 4.06216 32.7759 4.17714 32.9396C4.29211 33.1033 4.45466 33.2277 4.64272 33.2958L8.76596 34.8046V53.4327C8.76596 54.4988 9.18947 55.5212 9.94331 56.2751C10.6972 57.0289 11.7196 57.4524 12.7857 57.4524H15.0352C16.1013 57.4524 17.1238 57.0289 17.8776 56.2751C18.6315 55.5212 19.055 54.4988 19.055 53.4327V51.2104H52.945Z" stroke="#CA1515" stroke-width="3" stroke-miterlimit="10" stroke-linecap="round"/>
<path d="M30.6132 28.214H54.6445L50.287 20.2562C50.1652 20.0317 49.985 19.8444 49.7654 19.714C49.5458 19.5835 49.2951 19.5149 49.0397 19.5154H22.944C22.6896 19.5159 22.44 19.585 22.2214 19.7153C22.0029 19.8457 21.8235 20.0325 21.7022 20.2562L17.3447 28.214H30.6132Z" stroke="#CA1515" stroke-width="3" stroke-miterlimit="10" stroke-linecap="round"/>
<path d="M58.8004 37.577L52.1281 38.4975C51.3158 38.6165 50.5733 39.0236 50.0363 39.6446C49.4993 40.2656 49.2036 41.059 49.2031 41.88V43.5685H58.8004" stroke="#CA1515" stroke-width="3" stroke-miterlimit="10" stroke-linecap="round"/>
<path d="M28.9846 43.721H43.0156" stroke="#CA1515" stroke-width="3" stroke-miterlimit="10" stroke-linecap="round"/>
<path d="M43.0155 43.721L43.6582 38.1653H36H28.3418L28.9845 43.721" stroke="#CA1515" stroke-width="3" stroke-miterlimit="10" stroke-linecap="round"/>
<path d="M19.055 51.2104H14.8501" stroke="#CA1515" stroke-width="3" stroke-miterlimit="10" stroke-linecap="round"/>
<path d="M52.9451 51.2104H57.15" stroke="#CA1515" stroke-width="3" stroke-miterlimit="10" stroke-linecap="round"/>
</svg>
