<svg width="72" height="72" viewBox="0 0 72 72" fill="none" xmlns="http://www.w3.org/2000/svg">
<g clip-path="url(#clip0)">
<path d="M6.52124 65.4851L19.8153 52.1846" stroke="#CA1515" stroke-width="3" stroke-linecap="round" stroke-linejoin="round"/>
<path d="M27.9839 36.4711L6.54662 57.9276C5.61204 58.9406 5.10523 60.2758 5.13212 61.6538C5.15901 63.0319 5.71753 64.3462 6.69091 65.322C7.6643 66.2979 8.97721 66.8597 10.3552 66.8901C11.7332 66.9205 13.0696 66.4171 14.085 65.4851L35.5414 44.0286" stroke="#CA1515" stroke-width="3" stroke-linecap="round" stroke-linejoin="round"/>
<path d="M38.2092 30.0852L54.7186 13.5758L58.4241 17.2941L41.9148 33.8034" stroke="#CA1515" stroke-width="3" stroke-linecap="round" stroke-linejoin="round"/>
<path d="M66.7901 9.50098L62.4988 5.21606L56.5331 8.9598L54.7185 13.5758L58.424 17.2941L63.0464 15.4731L66.7901 9.50098Z" stroke="#CA1515" stroke-width="3" stroke-miterlimit="10"/>
<path d="M25.5327 8.78153C24.1063 7.36496 22.3458 6.33071 20.414 5.7743C18.4822 5.2179 16.4413 5.1573 14.4798 5.59808L16.3453 7.46358L21.598 12.7163L19.6879 19.8981L12.5125 21.8082L7.24704 16.53L5.38154 14.6709C4.9343 16.6889 5.01756 18.7884 5.62319 20.7647C6.22883 22.741 7.33617 24.5266 8.83728 25.9476C10.3384 27.3685 12.1821 28.3763 14.1886 28.8727C16.1951 29.3691 18.296 29.3371 20.2864 28.7799L56.8451 65.3259C57.9682 66.2873 59.4126 66.7895 60.8898 66.7323C62.367 66.6751 63.7682 66.0626 64.8135 65.0173C65.8588 63.972 66.4713 62.5708 66.5285 61.0936C66.5857 59.6164 66.0834 58.172 65.1221 57.0489L28.5952 20.4711C29.1683 18.4262 29.1866 16.2656 28.6484 14.2113C28.1102 12.1569 27.0348 10.2828 25.5327 8.78153V8.78153Z" stroke="#CA1515" stroke-width="3" stroke-miterlimit="10" stroke-linecap="round"/>
<path d="M65.1413 65.3259L54.7441 54.9351" stroke="#CA1515" stroke-width="3" stroke-miterlimit="10" stroke-linecap="round"/>
</g>
<defs>
<clipPath id="clip0">
<rect width="64" height="64" fill="white" transform="translate(4 4)"/>
</clipPath>
</defs>
</svg>
