<svg width="72" height="72" viewBox="0 0 72 72" fill="none" xmlns="http://www.w3.org/2000/svg">
<path d="M38.8799 8.51967V8.30605C38.8759 7.42783 38.5242 6.58696 37.9018 5.96739C37.2793 5.34782 36.4368 4.99999 35.5586 5V5C34.6804 4.99999 33.8379 5.34782 33.2155 5.96739C32.593 6.58696 32.2413 7.42783 32.2373 8.30605V8.50441" stroke="#CA1515" stroke-width="3" stroke-miterlimit="10"/>
<path d="M28.5191 9.44536V16.444C28.5191 16.601 28.55 16.7564 28.61 16.9014C28.6701 17.0464 28.7582 17.1782 28.8691 17.2892C28.9801 17.4002 29.1119 17.4882 29.2569 17.5483C29.4019 17.6084 29.5574 17.6393 29.7143 17.6393H30.1975C30.488 17.6392 30.7686 17.5333 30.9867 17.3414C31.2048 17.1495 31.3455 16.8847 31.3826 16.5966V16.4491C31.5136 15.4395 32.0075 14.5121 32.7722 13.8401C33.5369 13.1681 34.52 12.7974 35.5381 12.7972V12.7972C36.5591 12.7912 37.5471 13.1586 38.3162 13.8302C39.0853 14.5019 39.5824 15.4314 39.7138 16.444V16.5915C39.7509 16.8796 39.8917 17.1444 40.1098 17.3363C40.3279 17.5282 40.6084 17.6341 40.8989 17.6342V17.6342C41.0574 17.6369 41.2149 17.6082 41.3622 17.5497C41.5095 17.4912 41.6438 17.4041 41.7573 17.2935C41.8708 17.1828 41.9612 17.0508 42.0234 16.905C42.0856 16.7592 42.1183 16.6025 42.1196 16.444V9.44536C42.1196 9.19985 42.0221 8.9644 41.8485 8.7908C41.6749 8.6172 41.4394 8.51967 41.1939 8.51967H29.4448C29.323 8.51899 29.2023 8.54248 29.0897 8.58876C28.9771 8.63504 28.8748 8.7032 28.7887 8.78929C28.7026 8.87539 28.6344 8.9777 28.5881 9.09032C28.5419 9.20293 28.5184 9.32361 28.5191 9.44536V9.44536Z" stroke="#CA1515" stroke-width="3" stroke-miterlimit="10"/>
<path d="M28.5192 11.3171H18.2399C17.3806 11.3171 16.5566 11.6585 15.949 12.2661C15.3413 12.8737 15 13.6978 15 14.557V64.2546C15 65.1138 15.3413 65.9379 15.949 66.5455C16.5566 67.1531 17.3806 67.4945 18.2399 67.4945H52.8924C53.749 67.4905 54.5692 67.1473 55.1735 66.5402C55.7778 65.933 56.1171 65.1112 56.1171 64.2546V14.557C56.1171 13.7004 55.7778 12.8786 55.1735 12.2714C54.5692 11.6643 53.749 11.3211 52.8924 11.3171H42.1198" stroke="#CA1515" stroke-width="3" stroke-miterlimit="10"/>
<path d="M19.8015 16.1185V62.6778H42.6794L51.3158 54.0363V16.1185" stroke="#CA1515" stroke-width="3" stroke-miterlimit="10"/>
<path d="M31.8813 35.9395L28.0717 39.9729L26.2305 38.1317" stroke="#CA1515" stroke-width="3" stroke-miterlimit="10"/>
<path d="M26.4187 28.7578L30.9607 24.2209" stroke="#CA1515" stroke-width="3" stroke-miterlimit="10"/>
<path d="M30.9607 28.7578L26.4187 24.2209" stroke="#CA1515" stroke-width="3" stroke-miterlimit="10"/>
<path d="M26.4187 52.1493L30.9607 47.6124" stroke="#CA1515" stroke-width="3" stroke-miterlimit="10"/>
<path d="M30.9607 52.1493L26.4187 47.6124" stroke="#CA1515" stroke-width="3" stroke-miterlimit="10"/>
<path d="M34.2004 28.7578H47.3382" stroke="#CA1515" stroke-width="3" stroke-miterlimit="10"/>
<path d="M34.2004 40.2425H47.3382" stroke="#CA1515" stroke-width="3" stroke-miterlimit="10"/>
</svg>
